<?xml version="1.0" standalone="no"?>
<!DOCTYPE svg PUBLIC "-//W3C//DTD SVG 20010904//EN"
 "http://www.w3.org/TR/2001/REC-SVG-20010904/DTD/svg10.dtd">
<svg version="1.0" xmlns="http://www.w3.org/2000/svg"
 width="260.000000pt" height="260.000000pt" viewBox="0 0 260.000000 260.000000"
 preserveAspectRatio="xMidYMid meet">
<metadata>
Created by potrace 1.11, written by Peter Selinger 2001-2013
</metadata>
<g transform="translate(0.000000,260.000000) scale(0.100000,-0.100000)"
fill="#000000" stroke="none">
<path d="M1230 2408 l0 -158 -27 -6 c-103 -22 -158 -39 -229 -70 l-81 -35 -59
34 c-33 19 -80 43 -105 53 -41 16 -49 24 -64 66 -23 65 -85 131 -152 165 -47
22 -71 27 -128 27 -109 0 -193 -52 -240 -148 -68 -140 -4 -316 144 -390 42
-22 48 -29 59 -73 7 -27 38 -100 68 -163 47 -98 53 -116 40 -125 -9 -5 -43
-26 -77 -45 -75 -42 -211 -178 -241 -240 -33 -67 -29 -128 15 -229 20 -46 52
-103 72 -127 44 -54 156 -129 258 -174 l79 -34 -9 -41 c-12 -58 -8 -245 6
-288 15 -43 34 -58 121 -92 74 -29 140 -32 223 -10 62 16 199 82 287 139 30
19 56 31 58 26 2 -4 -12 -29 -32 -54 -45 -60 -59 -105 -54 -181 13 -209 266
-303 406 -151 47 51 66 102 65 176 0 70 -32 139 -84 184 -38 32 -50 56 -28 56
6 0 41 -17 77 -39 121 -69 194 -93 328 -104 67 -5 133 -7 148 -3 30 7 103 102
123 159 16 46 5 129 -28 204 -11 25 -18 47 -17 48 2 1 39 21 83 43 151 78 226
155 301 308 21 44 25 67 27 155 2 103 2 105 -31 151 -39 56 -134 126 -229 169
-37 17 -69 32 -71 34 -1 1 10 28 24 61 34 77 64 195 64 254 0 40 4 48 24 58
40 18 105 82 133 130 36 62 44 170 16 233 -59 132 -196 191 -336 143 -86 -29
-171 -127 -191 -219 -5 -23 -16 -34 -49 -48 -24 -9 -67 -33 -96 -52 l-53 -35
-88 35 c-49 19 -113 40 -144 47 -63 12 -57 -3 -75 172 -6 63 -15 104 -26 116
-21 23 -89 43 -152 45 l-53 1 0 -158z m3 -575 c4 -190 7 -439 7 -552 l-1 -206
-102 105 c-168 173 -325 368 -442 549 -54 84 -55 83 19 173 91 112 254 217
398 259 35 9 75 18 89 18 l26 1 6 -347z m363 316 c184 -57 331 -172 430 -336
32 -54 33 -56 17 -87 -32 -63 -178 -273 -247 -356 -126 -152 -262 -300 -275
-300 -4 0 -13 206 -19 458 -7 251 -16 499 -19 550 l-6 92 25 0 c14 0 57 -10
94 -21z m-841 -108 c3 -6 -3 -14 -13 -20 -10 -5 -43 -39 -73 -75 -30 -36 -57
-66 -60 -66 -4 0 -14 18 -23 41 -16 40 -16 41 9 61 14 11 37 39 51 64 l26 44
38 -20 c21 -11 41 -24 45 -29z m1290 0 c23 -21 58 -45 78 -52 21 -7 37 -17 37
-21 0 -5 -13 -38 -30 -74 l-30 -66 -46 62 c-25 34 -66 82 -90 107 -25 25 -44
47 -42 49 4 4 70 33 77 34 2 0 23 -17 46 -39z m-1408 -686 c91 -120 194 -243
332 -394 84 -93 87 -90 -78 -61 -97 18 -121 26 -171 60 -59 40 -132 115 -155
160 -21 40 -45 172 -45 243 0 75 10 132 20 120 4 -4 48 -62 97 -128z m1512
-74 c-18 -159 -86 -333 -137 -352 -37 -14 -258 -51 -284 -47 -17 3 -7 18 71
111 117 139 191 237 277 366 l69 104 8 -44 c4 -24 2 -86 -4 -138z m206 76 c72
-54 105 -96 105 -135 0 -42 -51 -114 -113 -162 -50 -37 -204 -107 -214 -96 -2
2 4 21 15 43 48 94 92 321 77 400 l-6 34 38 -20 c21 -10 65 -39 98 -64z
m-1885 -172 c7 -33 23 -89 36 -124 13 -35 22 -66 20 -68 -2 -3 -43 14 -89 37
-93 46 -173 110 -207 165 l-22 36 26 34 c32 42 95 94 161 132 l50 30 6 -91 c4
-50 12 -118 19 -151z m1531 -545 c25 -86 32 -150 14 -150 -18 0 -191 89 -205
105 -8 10 2 22 41 50 101 73 127 72 150 -5z m-1206 20 c17 -10 56 -33 88 -53
58 -36 58 -36 35 -51 -46 -30 -176 -85 -217 -92 l-41 -7 0 35 c0 34 19 119 39
171 9 24 15 27 38 21 16 -3 42 -14 58 -24z"/>
</g>
</svg>
